# xmcd
#
# Track frame offsets:
#	150
#	17005
#	31582
#	43822
#	58570
#	71967
#	86097
#	99600
#	112202
#	125967
#	137822
#	154905
#
# Disc length: 2261 seconds
#
# Revision: 0
# Processed by: cddbd v1.4PL0 Copyright (c) Steve Scherf et al.
# Submitted via: audiograbber 1.81.01
#
DISCID=b008d30c
DTITLE=BRUNO MARTINO - GRANDI SUCCESSI ORIGINALI CD1
DYEAR=1900
DGENRE=POP
TTITLE0=E LA CHIAMANO ESTATE
TTITLE1=FAI MALE
TTITLE2=E NON SBATTERE LA PORTA
TTITLE3=BACIAMI PER DOMANI
TTITLE4=COS'HAI TROVATO IN LUI
TTITLE5=ESTATE
TTITLE6=FORSE
TTITLE7=RAGAZZA D'IPANEMA 
TTITLE8=RIMPIANGERAI
TTITLE9=ROMA NUN F'A LA STUPIDA STASERA
TTITLE10=SE PTEMBER SONG
TTITLE11=SMOKE GETS IN YOUR EYES
EXTD=\n\n
EXTT0=
EXTT1=
EXTT2=
EXTT3=
EXTT4=
EXTT5=
EXTT6=
EXTT7=
EXTT8=
EXTT9=
EXTT10=
EXTT11=
PLAYORDER=
